HIERARCHY
ROOT Hip
{
	OFFSET 0 1.131 0.0052
	CHANNELS 6 Xposition Yposition Zposition Xrotation Yrotation Zrotation
	JOINT Abdomen
	{
		OFFSET 0 -0.047353 -0.05
		CHANNELS 3 Xrotation Zrotation Yrotation
		JOINT Chest
		{
			OFFSET 0 0.132153 0.007439
			CHANNELS 3 Xrotation Zrotation Yrotation
			JOINT Neck
			{
				OFFSET 0 0.3078 0.006161
				CHANNELS 3 Xrotation Zrotation Yrotation
				JOINT Head_comp
				{
					OFFSET 0 0.0884 0.013
					CHANNELS 3 Xrotation Yrotation Zrotation
					End Site
					{
						OFFSET -0 0.156 0.0624
					}
				}
			}
			JOINT Left_Collar
			{
				OFFSET 0.02282 0.250342 0.017193
				CHANNELS 2 Yrotation Zrotation
				JOINT Left_Shoulder
				{
					OFFSET 0.15421 0 0
					CHANNELS 3 Xrotation Yrotation Zrotation
					JOINT Left_Forearm
					{
						OFFSET 0.265212 0 0
						CHANNELS 2 Yrotation Xrotation
						JOINT Left_Hand
						{
							OFFSET 0.27571 0 0
							CHANNELS 2 Zrotation Yrotation
							JOINT L1ProxPhalanx
							{
								OFFSET 0.014142 0.001733 0.014142
								CHANNELS 3 Yrotation Zrotation Xrotation
								JOINT L1MidPhalanx
								{
									OFFSET 0.04 0 0
									CHANNELS 1 Zrotation
									JOINT L1DistPhalanx
									{
										OFFSET 0.035 0 0
										CHANNELS 1 Zrotation
										End Site
										{
											OFFSET 0.029 -0 -0
										}
									}
								}
							}
							JOINT L2ProxPhalanx
							{
								OFFSET 0.0821037 0.001578 0.0219996
								CHANNELS 2 Yrotation Zrotation
								JOINT L2MidPhalanx
								{
									OFFSET 0.04 0 0
									CHANNELS 1 Zrotation
									JOINT L2DistPhalanx
									{
										OFFSET 0.028 0 0
										CHANNELS 1 Zrotation
										End Site
										{
											OFFSET 0.02 -0 -0
										}
									}
								}
							}
							JOINT L3ProxPhalanx
							{
								OFFSET 0.083 0 0
								CHANNELS 2 Yrotation Zrotation
								JOINT L3MidPhalanx
								{
									OFFSET 0.053 0 0
									CHANNELS 1 Zrotation
									JOINT L3DistPhalanx
									{
										OFFSET 0.03 0 0
										CHANNELS 1 Zrotation
										End Site
										{
											OFFSET 0.023 -0 -0
										}
									}
								}
							}
							JOINT L4ProxPhalanx
							{
								OFFSET 0.077274 -0.000761 -0.0207055
								CHANNELS 2 Yrotation Zrotation
								JOINT L4MidPhalanx
								{
									OFFSET 0.05 0 0
									CHANNELS 1 Zrotation
									JOINT L4DistPhalanx
									{
										OFFSET 0.03 0 0
										CHANNELS 1 Zrotation
										End Site
										{
											OFFSET 0.023 -0 -0
										}
									}
								}
							}
							JOINT L5ProxPhalanx
							{
								OFFSET 0.0675499 -0.001644 -0.039
								CHANNELS 2 Yrotation Zrotation
								JOINT L5MidPhalanx
								{
									OFFSET 0.04 0 0
									CHANNELS 1 Zrotation
									JOINT L5DistPhalanx
									{
										OFFSET 0.021 0 0
										CHANNELS 1 Zrotation
										End Site
										{
											OFFSET 0.022 -0 -0
										}
									}
								}
							}
						}
					}
				}
			}
			JOINT Right_Collar
			{
				OFFSET -0.02282 0.250342 0.017193
				CHANNELS 2 Yrotation Zrotation
				JOINT Right_Shoulder
				{
					OFFSET -0.15421 0 0
					CHANNELS 3 Xrotation Yrotation Zrotation
					JOINT Right_Forearm
					{
						OFFSET -0.265212 0 0
						CHANNELS 2 Yrotation Xrotation
						JOINT Right_Hand
						{
							OFFSET -0.27571 3e-006 0
							CHANNELS 2 Zrotation Yrotation
							JOINT R1ProxPhalanx
							{
								OFFSET -0.014142 0.001733 0.014142
								CHANNELS 3 Yrotation Zrotation Xrotation
								JOINT R1MidPhalanx
								{
									OFFSET -0.04 0 0
									CHANNELS 1 Zrotation
									JOINT R1DistPhalanx
									{
										OFFSET -0.035 0 0
										CHANNELS 1 Zrotation
										End Site
										{
											OFFSET -0.029 -0 -0
										}
									}
								}
							}
							JOINT R2ProxPhalanx
							{
								OFFSET -0.0821037 0.001578 0.0219996
								CHANNELS 2 Yrotation Zrotation
								JOINT R2MidPhalanx
								{
									OFFSET -0.04 0 0
									CHANNELS 1 Zrotation
									JOINT R2DistPhalanx
									{
										OFFSET -0.028 0 0
										CHANNELS 1 Zrotation
										End Site
										{
											OFFSET -0.02 -0 -0
										}
									}
								}
							}
							JOINT R3ProxPhalanx
							{
								OFFSET -0.083 0 0
								CHANNELS 2 Yrotation Zrotation
								JOINT R3MidPhalanx
								{
									OFFSET -0.053 0 0
									CHANNELS 1 Zrotation
									JOINT R3DistPhalanx
									{
										OFFSET -0.03 0 0
										CHANNELS 1 Zrotation
										End Site
										{
											OFFSET -0.023 -0 -0
										}
									}
								}
							}
							JOINT R4ProxPhalanx
							{
								OFFSET -0.077274 -0.000761 -0.0207055
								CHANNELS 2 Yrotation Zrotation
								JOINT R4MidPhalanx
								{
									OFFSET -0.05 0 0
									CHANNELS 1 Zrotation
									JOINT R4DistPhalanx
									{
										OFFSET -0.03 0 0
										CHANNELS 1 Zrotation
										End Site
										{
											OFFSET -0.023 -0 -0
										}
									}
								}
							}
							JOINT R5ProxPhalanx
							{
								OFFSET -0.0675499 -0.001644 -0.039
								CHANNELS 2 Yrotation Zrotation
								JOINT R5MidPhalanx
								{
									OFFSET -0.04 0 0
									CHANNELS 1 Zrotation
									JOINT R5DistPhalanx
									{
										OFFSET -0.021 0 0
										CHANNELS 1 Zrotation
										End Site
										{
											OFFSET -0.022 -0 -0
										}
									}
								}
							}
						}
					}
				}
			}
		}
	}
	JOINT Left_Thigh
	{
		OFFSET 0.1118 -0.1612 -0.0442
		CHANNELS 3 Xrotation Zrotation Yrotation
		JOINT Left_Shin
		{
			OFFSET 0 -0.477856 0
			CHANNELS 1 Xrotation
			JOINT Left_Foot
			{
				OFFSET 0 -0.431952 0
				CHANNELS 2 Xrotation Zrotation
				JOINT Left_Toe
				{
					OFFSET 0 -0.0442 0.119
					CHANNELS 1 Xrotation
					End Site
					{
						OFFSET -0 -0 0.07
					}
				}
			}
		}
	}
	JOINT Right_Thigh
	{
		OFFSET -0.1118 -0.1612 -0.0442
		CHANNELS 3 Xrotation Zrotation Yrotation
		JOINT Right_Shin
		{
			OFFSET 0 -0.477856 0
			CHANNELS 1 Xrotation
			JOINT Right_Foot
			{
				OFFSET 0 -0.431952 0
				CHANNELS 2 Xrotation Zrotation
				JOINT Right_Toe
				{
					OFFSET 0 -0.0442 0.119
					CHANNELS 1 Xrotation
					End Site
					{
						OFFSET -0 -0 0.07
					}
				}
			}
		}
	}
}
MOTION
Frames: 16
Frame Time: 0.009975
-0.104382 -0.0601773 0.0557947 -3.03116e-013 9.43226e-008 -5.10862e-006 0 0 0 0 0 0 0 0 0 0 0 0 0 0 -0 0 -0 0 0 0 0 -40.5316 -43.5896 103.283 -7.10789 -4.81548 2.69559 -7.40342 -2.98992 -6.72733 5.89092 0.508958 -5.4973 -5.3917 11.1257 1.19015 -12.1062 -9.35422 19.4153 3.33565 -41.2194 -1.46018 0 0 -0 0 -0 0 0 0 0 37.9386 28.008 73.698 26.2405 28.4472 13.118 18.2167 29.0248 19.6359 0 22.4358 32.6146 28.1246 -8.63175 30.7051 32.2053 23.7634 -7.83088 26.7354 35.1526 30.0193 1.04635 -0.467156 -0.00853227 0.0240216 -1.07034 0.467239 0 1.05776 -0.467154 -0.00862526 2.41484e-006 -1.05772 0.467239 0 
-0.104382 -0.0601773 0.0557947 -3.03116e-013 9.43226e-008 -5.10862e-006 0 0 0 0 0 0 0 0 0 0 0 0 0 0 -0 0 -0 0 0 0 0 -40.5316 -43.5896 103.283 -7.10789 -4.81548 2.69559 -7.40342 -2.98992 -6.72733 5.89092 0.508958 -5.4973 -5.3917 11.1257 1.19015 -12.1062 -9.35422 19.4153 3.33565 -41.2194 -1.46018 0 0 -0 0 -0 0 0 0 0 37.9386 28.008 73.698 26.2405 28.4472 13.118 18.2167 29.0248 19.6359 0 22.4358 32.6146 28.1246 -8.63175 30.7051 32.2053 23.7634 -7.83088 26.7354 35.1526 30.0193 1.04635 -0.467156 -0.00853227 0.0240216 -1.07034 0.467239 0 1.05776 -0.467154 -0.00862526 2.41484e-006 -1.05772 0.467239 0 
-0.101405 -0.0601345 0.0512437 9.91276e-014 6.87677e-008 -5.08365e-006 0 -0 0 0 -0 0 0 -0 0 -0.710578 0.291142 -9.07228e-006 8.3691 -19.88 -1.86454 -14.7043 -26.3626 -101.435 -1.85726 6.58088 -14.7496 -40.6385 -43.5109 103.135 -7.24735 -4.8914 2.67736 -7.51636 -3.17497 -6.76869 5.86226 0.346656 -5.66981 -5.45475 11.0789 1.02468 -12.2457 -9.39745 19.3495 3.19963 -41.1833 -1.55288 -8.3691 19.88 -1.86454 14.7043 26.3626 101.435 -1.85726 -6.58088 14.7496 40.6385 43.5109 103.135 7.24735 4.8914 -2.67736 7.51636 3.17497 6.76869 -5.86226 -0.346656 5.66981 5.45475 -11.0789 -1.02468 12.2457 9.39745 -19.3495 -3.19963 41.1833 1.55288 0.759782 -0.654625 -0.00870299 0.0239015 -0.783634 0.654688 0 0.77113 -0.654624 -0.00883297 1.69901e-006 -0.771082 0.654688 0 
-0.10135 -0.0601304 0.0509442 9.96411e-014 6.91132e-008 -5.10919e-006 0 -0 0 0 -0 0 0 -0 0 -0.71304 0.291185 -1.03805e-010 8.41073 -19.9798 -1.80614 -14.7901 -26.2074 -101.917 -1.864 6.61377 -14.8236 -40.5316 -43.5896 103.283 -7.10789 -4.81548 2.69559 -7.40342 -2.98992 -6.72733 5.89092 0.508958 -5.4973 -5.3917 11.1257 1.19015 -12.1062 -9.35422 19.4153 3.33565 -41.2194 -1.46018 -8.41073 19.9798 -1.80614 14.7901 26.2074 101.917 -1.864 -6.61377 14.8236 40.5316 43.5896 103.283 7.10789 4.81548 -2.69559 7.40342 2.98992 6.72733 -5.89092 -0.508958 5.4973 5.3917 -11.1257 -1.19015 12.1062 9.35422 -19.4153 -3.33565 41.2194 1.46018 0.740858 -0.658115 -0.00851005 0.0240216 -0.764831 0.658175 0 0.752264 -0.658113 -0.00864105 1.70755e-006 -0.752216 0.658175 0 
-0.10135 -0.0601304 0.0509375 -1.39041e-013 6.70699e-008 -5.10922e-006 0 -0 0 0 -0 0 0 -0 0 -0.713023 0.29117 -3.02879e-015 8.41073 -19.9798 -1.80595 -14.7902 -26.2087 -101.917 -1.864 6.61377 -14.8236 -40.5316 -43.5896 103.283 -7.10789 -4.81548 2.69559 -7.40342 -2.98992 -6.72733 5.89092 0.508958 -5.4973 -5.3917 11.1257 1.19015 -12.1062 -9.35422 19.4153 3.33565 -41.2194 -1.46018 -8.41073 19.9798 -1.80595 14.7902 26.2087 101.917 -1.864 -6.61377 14.8236 40.5316 43.5896 103.283 7.10789 4.81548 -2.69559 7.40342 2.98992 6.72733 -5.89092 -0.508958 5.4973 5.3917 -11.1257 -1.19015 12.1062 9.35422 -19.4153 -3.33565 41.2194 1.46018 0.740435 -0.658118 -0.00850523 0.0240216 -0.764408 0.658178 0 0.751841 -0.658116 -0.00863623 1.70755e-006 -0.751794 0.658178 0 
-0.10135 -0.0601304 0.0509374 3.15032e-013 6.70473e-008 -5.10922e-006 0 -0 0 0 -0 0 0 -0 0 -0.713023 0.29117 -0 8.41073 -19.9798 -1.80595 -14.7902 -26.2087 -101.917 -1.864 6.61377 -14.8236 -40.5316 -43.5896 103.283 -7.10789 -4.81548 2.69559 -7.40342 -2.98992 -6.72733 5.89092 0.508958 -5.4973 -5.3917 11.1257 1.19015 -12.1062 -9.35422 19.4153 3.33565 -41.2194 -1.46018 -8.41073 19.9798 -1.80595 14.7902 26.2087 101.917 -1.864 -6.61377 14.8236 40.5316 43.5896 103.283 7.10789 4.81548 -2.69559 7.40342 2.98992 6.72733 -5.89092 -0.508958 5.4973 5.3917 -11.1257 -1.19015 12.1062 9.35422 -19.4153 -3.33565 41.2194 1.46018 0.740433 -0.658118 -0.0085052 0.0240216 -0.764403 0.658178 0 0.751834 -0.658116 -0.00863616 2.41484e-006 -0.751788 0.658178 0 
-0.10135 -0.0601304 0.0509374 -4.11079e-013 6.70471e-008 -5.10922e-006 0 -0 0 0 -0 0 0 -0 0 -0.713023 0.29117 -0 8.41073 -19.9798 -1.80595 -14.7902 -26.2087 -101.917 -1.864 6.61377 -14.8236 -40.5316 -43.5896 103.283 -7.10789 -4.81548 2.69559 -7.40342 -2.98992 -6.72733 5.89092 0.508958 -5.4973 -5.3917 11.1257 1.19015 -12.1062 -9.35422 19.4153 3.33565 -41.2194 -1.46018 -8.41073 19.9798 -1.80595 14.7902 26.2087 101.917 -1.864 -6.61377 14.8236 40.5316 43.5896 103.283 7.10789 4.81548 -2.69559 7.40342 2.98992 6.72733 -5.89092 -0.508958 5.4973 5.3917 -11.1257 -1.19015 12.1062 9.35422 -19.4153 -3.33565 41.2194 1.46018 0.74043 -0.658118 -0.00850517 0.0240216 -0.764403 0.658178 0 0.751836 -0.658116 -0.00863618 2.83165e-006 -0.751787 0.658178 0 
-0.10135 -0.0601304 0.0509374 6.41337e-013 6.70471e-008 -5.10922e-006 0 -0 0 0 -0 0 0 -0 0 -0.713023 0.29117 -0 8.41073 -19.9798 -1.80595 -14.7902 -26.2087 -101.917 -1.864 6.61377 -14.8236 -40.5316 -43.5896 103.283 -7.10789 -4.81548 2.69559 -7.40342 -2.98992 -6.72733 5.89092 0.508958 -5.4973 -5.3917 11.1257 1.19015 -12.1062 -9.35422 19.4153 3.33565 -41.2194 -1.46018 -8.41073 19.9798 -1.80595 14.7902 26.2087 101.917 -1.864 -6.61377 14.8236 40.5316 43.5896 103.283 7.10789 4.81548 -2.69559 7.40342 2.98992 6.72733 -5.89092 -0.508958 5.4973 5.3917 -11.1257 -1.19015 12.1062 9.35422 -19.4153 -3.33565 41.2194 1.46018 0.74043 -0.658118 -0.00850517 0.0240216 -0.764403 0.658178 0 0.751836 -0.658116 -0.00863618 4.22596e-008 -0.751789 0.658178 0 
-0.10135 -0.0601304 0.0509374 -6.69201e-013 6.70471e-008 -5.10922e-006 0 -0 0 0 -0 0 0 -0 0 -0.713023 0.29117 -0 8.41073 -19.9798 -1.80595 -14.7902 -26.2087 -101.917 -1.864 6.61377 -14.8236 -40.5316 -43.5896 103.283 -7.10789 -4.81548 2.69559 -7.40342 -2.98992 -6.72733 5.89092 0.508958 -5.4973 -5.3917 11.1257 1.19015 -12.1062 -9.35422 19.4153 3.33565 -41.2194 -1.46018 -8.41073 19.9798 -1.80595 14.7902 26.2087 101.917 -1.864 -6.61377 14.8236 40.5316 43.5896 103.283 7.10789 4.81548 -2.69559 7.40342 2.98992 6.72733 -5.89092 -0.508958 5.4973 5.3917 -11.1257 -1.19015 12.1062 9.35422 -19.4153 -3.33565 41.2194 1.46018 0.74043 -0.658118 -0.00850517 0.0240216 -0.764403 0.658178 0 0.751836 -0.658116 -0.00863618 0 -0.751786 0.658178 0 
-0.10135 -0.0601304 0.0509374 -2.00318e-013 6.70471e-008 -5.10922e-006 0 -0 0 0 -0 0 0 -0 0 -0.713023 0.29117 -0 8.41073 -19.9798 -1.80595 -14.7902 -26.2087 -101.917 -1.864 6.61377 -14.8236 -40.5316 -43.5896 103.283 -7.10789 -4.81548 2.69559 -7.40342 -2.98992 -6.72733 5.89092 0.508958 -5.4973 -5.3917 11.1257 1.19015 -12.1062 -9.35422 19.4153 3.33565 -41.2194 -1.46018 -8.41073 19.9798 -1.80595 14.7902 26.2087 101.917 -1.864 -6.61377 14.8236 40.5316 43.5896 103.283 7.10789 4.81548 -2.69559 7.40342 2.98992 6.72733 -5.89092 -0.508958 5.4973 5.3917 -11.1257 -1.19015 12.1062 9.35422 -19.4153 -3.33565 41.2194 1.46018 0.74043 -0.658118 -0.00850517 0.0240216 -0.764403 0.658178 0 0.751836 -0.658116 -0.00863618 0 -0.751786 0.658178 0 
-0.10135 -0.0601304 0.0509374 2.70603e-013 6.70471e-008 -5.10922e-006 0 -0 0 0 -0 0 0 -0 0 -0.713023 0.29117 -0 8.41073 -19.9798 -1.80595 -14.7902 -26.2087 -101.917 -1.864 6.61377 -14.8236 -40.5316 -43.5896 103.283 -7.10789 -4.81548 2.69559 -7.40342 -2.98992 -6.72733 5.89092 0.508958 -5.4973 -5.3917 11.1257 1.19015 -12.1062 -9.35422 19.4153 3.33565 -41.2194 -1.46018 -8.41073 19.9798 -1.80595 14.7902 26.2087 101.917 -1.864 -6.61377 14.8236 40.5316 43.5896 103.283 7.10789 4.81548 -2.69559 7.40342 2.98992 6.72733 -5.89092 -0.508958 5.4973 5.3917 -11.1257 -1.19015 12.1062 9.35422 -19.4153 -3.33565 41.2194 1.46018 0.74043 -0.658118 -0.00850517 0.0240216 -0.764403 0.658178 0 0.751836 -0.658116 -0.00863618 0 -0.751786 0.658178 0 
-0.10135 -0.0601304 0.0509374 -1.68562e-013 6.70471e-008 -5.10922e-006 0 -0 0 0 -0 0 0 -0 0 -0.713023 0.29117 -0 8.41073 -19.9798 -1.80595 -14.7902 -26.2087 -101.917 -1.864 6.61377 -14.8236 -40.5316 -43.5896 103.283 -7.10789 -4.81548 2.69559 -7.40342 -2.98992 -6.72733 5.89092 0.508958 -5.4973 -5.3917 11.1257 1.19015 -12.1062 -9.35422 19.4153 3.33565 -41.2194 -1.46018 -8.41073 19.9798 -1.80595 14.7902 26.2087 101.917 -1.864 -6.61377 14.8236 40.5316 43.5896 103.283 7.10789 4.81548 -2.69559 7.40342 2.98992 6.72733 -5.89092 -0.508958 5.4973 5.3917 -11.1257 -1.19015 12.1062 9.35422 -19.4153 -3.33565 41.2194 1.46018 0.74043 -0.658118 -0.00850517 0.0240216 -0.764403 0.658178 0 0.751836 -0.658116 -0.00863618 1.66059e-006 -0.751786 0.658178 0 
-0.10135 -0.0601304 0.0509374 -1.15607e-012 6.70471e-008 -5.10922e-006 0 -0 0 0 -0 0 0 -0 0 -0.713023 0.29117 -0 8.41073 -19.9798 -1.80595 -14.7902 -26.2087 -101.917 -1.864 6.61377 -14.8236 -40.5316 -43.5896 103.283 -7.10789 -4.81548 2.69559 -7.40342 -2.98992 -6.72733 5.89092 0.508958 -5.4973 -5.3917 11.1257 1.19015 -12.1062 -9.35422 19.4153 3.33565 -41.2194 -1.46018 -8.41073 19.9798 -1.80595 14.7902 26.2087 101.917 -1.864 -6.61377 14.8236 40.5316 43.5896 103.283 7.10789 4.81548 -2.69559 7.40342 2.98992 6.72733 -5.89092 -0.508958 5.4973 5.3917 -11.1257 -1.19015 12.1062 9.35422 -19.4153 -3.33565 41.2194 1.46018 0.74043 -0.658118 -0.00850517 0.0240216 -0.764403 0.658178 0 0.751836 -0.658116 -0.00863618 1.70755e-006 -0.751788 0.658178 0 
-0.10135 -0.0601304 0.0509374 1.00432e-012 6.70471e-008 -5.10922e-006 0 -0 0 0 -0 0 0 -0 0 -0.713023 0.29117 -0 8.41073 -19.9798 -1.80595 -14.7902 -26.2087 -101.917 -1.864 6.61377 -14.8236 -40.5316 -43.5896 103.283 -7.10789 -4.81548 2.69559 -7.40342 -2.98992 -6.72733 5.89092 0.508958 -5.4973 -5.3917 11.1257 1.19015 -12.1062 -9.35422 19.4153 3.33565 -41.2194 -1.46018 -8.41073 19.9798 -1.80595 14.7902 26.2087 101.917 -1.864 -6.61377 14.8236 40.5316 43.5896 103.283 7.10789 4.81548 -2.69559 7.40342 2.98992 6.72733 -5.89092 -0.508958 5.4973 5.3917 -11.1257 -1.19015 12.1062 9.35422 -19.4153 -3.33565 41.2194 1.46018 0.74043 -0.658118 -0.00850517 0.0240216 -0.764403 0.658178 0 0.751836 -0.658116 -0.00863618 2.41484e-006 -0.751789 0.658178 0 
-0.10135 -0.0601304 0.0509374 -2.20842e-013 6.70471e-008 -5.10922e-006 0 -0 0 0 -0 0 0 -0 0 -0.713023 0.29117 -0 8.41073 -19.9798 -1.80595 -14.7902 -26.2087 -101.917 -1.864 6.61377 -14.8236 -40.5316 -43.5896 103.283 -7.10789 -4.81548 2.69559 -7.40342 -2.98992 -6.72733 5.89092 0.508958 -5.4973 -5.3917 11.1257 1.19015 -12.1062 -9.35422 19.4153 3.33565 -41.2194 -1.46018 -8.41073 19.9798 -1.80595 14.7902 26.2087 101.917 -1.864 -6.61377 14.8236 40.5316 43.5896 103.283 7.10789 4.81548 -2.69559 7.40342 2.98992 6.72733 -5.89092 -0.508958 5.4973 5.3917 -11.1257 -1.19015 12.1062 9.35422 -19.4153 -3.33565 41.2194 1.46018 0.74043 -0.658118 -0.00850517 0.0240216 -0.764403 0.658178 0 0.751836 -0.658116 -0.00863618 2.41484e-006 -0.751789 0.658178 0 
-0.10135 -0.0601304 0.0509374 -1.23996e-012 6.70471e-008 -5.10922e-006 0 -0 0 0 -0 0 0 -0 0 -0.713023 0.29117 -0 8.41073 -19.9798 -1.80595 -14.7902 -26.2087 -101.917 -1.864 6.61377 -14.8236 -40.5316 -43.5896 103.283 -7.10789 -4.81548 2.69559 -7.40342 -2.98992 -6.72733 5.89092 0.508958 -5.4973 -5.3917 11.1257 1.19015 -12.1062 -9.35422 19.4153 3.33565 -41.2194 -1.46018 -8.41073 19.9798 -1.80595 14.7902 26.2087 101.917 -1.864 -6.61377 14.8236 40.5316 43.5896 103.283 7.10789 4.81548 -2.69559 7.40342 2.98992 6.72733 -5.89092 -0.508958 5.4973 5.3917 -11.1257 -1.19015 12.1062 9.35422 -19.4153 -3.33565 41.2194 1.46018 0.74043 -0.658118 -0.00850517 0.0240216 -0.764403 0.658178 0 0.751836 -0.658116 -0.00863618 1.70755e-006 -0.751788 0.658178 0 
